<svg viewBox="0 -20 300 140" xmlns="http://www.w3.org/2000/svg">
<g transform="scale(1, 1)">
<g fill="CornflowerBlue">
<rect height="0.0015256228" width="50" x="50" y="0.015259045"/>
<text fill="Black" font-family="Arial" font-size="5" x="51" y="-1.9832153">
0x10000000
</text>
<text fill="Black" font-family="Arial" font-size="5" x="51" y="5.0152593">
0x10001000
</text>
</g>
<g fill="CornflowerBlue">
<rect height="0.0015256228" width="50" x="50" y="0.013733166"/>
<text fill="Black" font-family="Arial" font-size="5" x="51" y="-1.9847412">
0x10001000
</text>
<text fill="Black" font-family="Arial" font-size="5" x="51" y="5.0137334">
0x10002000
</text>
</g>
<g fill="CornflowerBlue">
<rect height="0.0015256228" width="50" x="50" y="0.012207287"/>
<text fill="Black" font-family="Arial" font-size="5" x="51" y="-1.9862671">
0x10002000
</text>
<text fill="Black" font-family="Arial" font-size="5" x="51" y="5.0122075">
0x10003000
</text>
</g>
<g fill="CornflowerBlue">
<rect height="0.0015256228" width="50" x="50" y="0.010681408"/>
<text fill="Black" font-family="Arial" font-size="5" x="51" y="-1.987793">
0x10003000
</text>
<text fill="Black" font-family="Arial" font-size="5" x="51" y="5.0106816">
0x10004000
</text>
</g>
<g fill="CornflowerBlue">
<rect height="0.0015256228" width="50" x="50" y="0.00915553"/>
<text fill="Black" font-family="Arial" font-size="5" x="51" y="-1.9893188">
0x10004000
</text>
<text fill="Black" font-family="Arial" font-size="5" x="51" y="5.0091558">
0x10005000
</text>
</g>
<g fill="CornflowerBlue">
<rect height="0.0015256228" width="50" x="50" y="0.0076296506"/>
<text fill="Black" font-family="Arial" font-size="5" x="51" y="-1.9908447">
0x10005000
</text>
<text fill="Black" font-family="Arial" font-size="5" x="51" y="5.00763">
0x10006000
</text>
</g>
<g fill="CornflowerBlue">
<rect height="0.0015256228" width="50" x="50" y="0.0061037717"/>
<text fill="Black" font-family="Arial" font-size="5" x="51" y="-1.9923706">
0x10006000
</text>
<text fill="Black" font-family="Arial" font-size="5" x="51" y="5.006104">
0x10007000
</text>
</g>
<g fill="CornflowerBlue">
<rect height="0.0015256228" width="50" x="50" y="0.004577893"/>
<text fill="Black" font-family="Arial" font-size="5" x="51" y="-1.9938965">
0x10007000
</text>
<text fill="Black" font-family="Arial" font-size="5" x="51" y="5.004578">
0x10008000
</text>
</g>
<g fill="CornflowerBlue">
<rect height="0.0015256228" width="50" x="50" y="0.003052014"/>
<text fill="Black" font-family="Arial" font-size="5" x="51" y="-1.9954224">
0x10008000
</text>
<text fill="Black" font-family="Arial" font-size="5" x="51" y="5.003052">
0x10009000
</text>
</g>
<g fill="CornflowerBlue">
<rect height="0.0015256228" width="50" x="50" y="0.001526135"/>
<text fill="Black" font-family="Arial" font-size="5" x="51" y="-1.9969482">
0x10009000
</text>
<text fill="Black" font-family="Arial" font-size="5" x="51" y="5.0015264">
0x1000A000
</text>
</g>
<g fill="CornflowerBlue">
<rect height="0.0015256228" width="50" x="50" y="0.0000002561137"/>
<text fill="Black" font-family="Arial" font-size="5" x="51" y="-1.9984741">
0x1000A000
</text>
<text fill="Black" font-family="Arial" font-size="5" x="51" y="5.0000005">
0x1000B000
</text>
</g>
<g fill="Crimson">
<rect height="0.0015256228" width="50" x="100" y="0.015259045"/>
<text fill="Black" font-family="Arial" font-size="5" x="101" y="-1.9832153">
0x10000000
</text>
<text fill="Black" font-family="Arial" font-size="5" x="101" y="5.0152593">
0x10001000
</text>
</g>
<g fill="Crimson">
<rect height="0.0015256228" width="50" x="100" y="0.013733166"/>
<text fill="Black" font-family="Arial" font-size="5" x="101" y="-1.9847412">
0x10001000
</text>
<text fill="Black" font-family="Arial" font-size="5" x="101" y="5.0137334">
0x10002000
</text>
</g>
<g fill="Crimson">
<rect height="0.0015256228" width="50" x="100" y="0.012207287"/>
<text fill="Black" font-family="Arial" font-size="5" x="101" y="-1.9862671">
0x10002000
</text>
<text fill="Black" font-family="Arial" font-size="5" x="101" y="5.0122075">
0x10003000
</text>
</g>
<g fill="Crimson">
<rect height="0.0015256228" width="50" x="100" y="0.010681408"/>
<text fill="Black" font-family="Arial" font-size="5" x="101" y="-1.987793">
0x10003000
</text>
<text fill="Black" font-family="Arial" font-size="5" x="101" y="5.0106816">
0x10004000
</text>
</g>
<g fill="Crimson">
<rect height="0.0015256228" width="50" x="100" y="0.00915553"/>
<text fill="Black" font-family="Arial" font-size="5" x="101" y="-1.9893188">
0x10004000
</text>
<text fill="Black" font-family="Arial" font-size="5" x="101" y="5.0091558">
0x10005000
</text>
</g>
<g fill="Crimson">
<rect height="0.0015256228" width="50" x="100" y="0.0076296506"/>
<text fill="Black" font-family="Arial" font-size="5" x="101" y="-1.9908447">
0x10005000
</text>
<text fill="Black" font-family="Arial" font-size="5" x="101" y="5.00763">
0x10006000
</text>
</g>
<g fill="Crimson">
<rect height="0.0015256228" width="50" x="100" y="0.0061037717"/>
<text fill="Black" font-family="Arial" font-size="5" x="101" y="-1.9923706">
0x10006000
</text>
<text fill="Black" font-family="Arial" font-size="5" x="101" y="5.006104">
0x10007000
</text>
</g>
<g fill="Crimson">
<rect height="0.0015256228" width="50" x="100" y="0.004577893"/>
<text fill="Black" font-family="Arial" font-size="5" x="101" y="-1.9938965">
0x10007000
</text>
<text fill="Black" font-family="Arial" font-size="5" x="101" y="5.004578">
0x10008000
</text>
</g>
<g fill="Crimson">
<rect height="0.0015256228" width="50" x="100" y="0.003052014"/>
<text fill="Black" font-family="Arial" font-size="5" x="101" y="-1.9954224">
0x10008000
</text>
<text fill="Black" font-family="Arial" font-size="5" x="101" y="5.003052">
0x10009000
</text>
</g>
<g fill="Crimson">
<rect height="0.0015256228" width="50" x="100" y="0.001526135"/>
<text fill="Black" font-family="Arial" font-size="5" x="101" y="-1.9969482">
0x10009000
</text>
<text fill="Black" font-family="Arial" font-size="5" x="101" y="5.0015264">
0x1000A000
</text>
</g>
<g fill="Crimson">
<rect height="0.0015256228" width="50" x="100" y="0.0000002561137"/>
<text fill="Black" font-family="Arial" font-size="5" x="101" y="-1.9984741">
0x1000A000
</text>
<text fill="Black" font-family="Arial" font-size="5" x="101" y="5.0000005">
0x1000B000
</text>
</g>
<g fill="MediumSeaGreen">
<rect height="0.000095351425" width="50" x="150" y="0.016689317"/>
<text fill="Black" font-family="Arial" font-size="5" x="151" y="-1.9832153">
0x10000000
</text>
<text fill="Black" font-family="Arial" font-size="5" x="151" y="5.0166893">
0x10000100
</text>
</g>
<g fill="MediumSeaGreen">
<rect height="0.016528575" width="50" x="150" y="0.00016454048"/>
<text fill="Black" font-family="Arial" font-size="5" x="151" y="-1.9833069">
0x10000100
</text>
<text fill="Black" font-family="Arial" font-size="5" x="151" y="5.0001645">
0x1000AE58
</text>
</g>
<g fill="SandyBrown">
<rect height="0.0001579258" width="50" x="150" y="-0.0000053379044"/>
<text fill="Black" font-family="Arial" font-size="5" x="151" y="-1.9998474">
0x1000AE58
</text>
<text fill="Black" font-family="Arial" font-size="5" x="151" y="4.9999948">
0x1000B000
</text>
</g>
</g>
</svg>