<svg viewBox="0 -20 300 140" xmlns="http://www.w3.org/2000/svg">
<g transform="scale(1, 1)">
<g fill="CornflowerBlue">
<rect height="0.0015257392" width="50" x="50" y="0.007629534"/>
<text fill="Black" font-family="Arial" font-size="5" x="51" y="-1.9908447">
0x10000000
</text>
<text fill="Black" font-family="Arial" font-size="5" x="51" y="5.0076294">
0x10001000
</text>
</g>
<g fill="CornflowerBlue">
<rect height="0.0015257392" width="50" x="50" y="0.0061036553"/>
<text fill="Black" font-family="Arial" font-size="5" x="51" y="-1.9923706">
0x10001000
</text>
<text fill="Black" font-family="Arial" font-size="5" x="51" y="5.0061035">
0x10002000
</text>
</g>
<g fill="CornflowerBlue">
<rect height="0.0015257392" width="50" x="50" y="0.0045777764"/>
<text fill="Black" font-family="Arial" font-size="5" x="51" y="-1.9938965">
0x10002000
</text>
<text fill="Black" font-family="Arial" font-size="5" x="51" y="5.0045776">
0x10003000
</text>
</g>
<g fill="CornflowerBlue">
<rect height="0.0015257392" width="50" x="50" y="0.0030518975"/>
<text fill="Black" font-family="Arial" font-size="5" x="51" y="-1.9954224">
0x10003000
</text>
<text fill="Black" font-family="Arial" font-size="5" x="51" y="5.0030518">
0x10004000
</text>
</g>
<g fill="CornflowerBlue">
<rect height="0.0015257392" width="50" x="50" y="0.0015260186"/>
<text fill="Black" font-family="Arial" font-size="5" x="51" y="-1.9969482">
0x10004000
</text>
<text fill="Black" font-family="Arial" font-size="5" x="51" y="5.001526">
0x10005000
</text>
</g>
<g fill="CornflowerBlue">
<rect height="0.0015257392" width="50" x="50" y="0.00000013969839"/>
<text fill="Black" font-family="Arial" font-size="5" x="51" y="-1.9984741">
0x10005000
</text>
<text fill="Black" font-family="Arial" font-size="5" x="51" y="5">
0x10006000
</text>
</g>
<g fill="Crimson">
<rect height="0.0015257392" width="50" x="100" y="0.007629534"/>
<text fill="Black" font-family="Arial" font-size="5" x="101" y="-1.9908447">
0x10000000
</text>
<text fill="Black" font-family="Arial" font-size="5" x="101" y="5.0076294">
0x10001000
</text>
</g>
<g fill="Crimson">
<rect height="0.0015257392" width="50" x="100" y="0.0061036553"/>
<text fill="Black" font-family="Arial" font-size="5" x="101" y="-1.9923706">
0x10001000
</text>
<text fill="Black" font-family="Arial" font-size="5" x="101" y="5.0061035">
0x10002000
</text>
</g>
<g fill="Crimson">
<rect height="0.0015257392" width="50" x="100" y="0.0045777764"/>
<text fill="Black" font-family="Arial" font-size="5" x="101" y="-1.9938965">
0x10002000
</text>
<text fill="Black" font-family="Arial" font-size="5" x="101" y="5.0045776">
0x10003000
</text>
</g>
<g fill="Crimson">
<rect height="0.0015257392" width="50" x="100" y="0.0030518975"/>
<text fill="Black" font-family="Arial" font-size="5" x="101" y="-1.9954224">
0x10003000
</text>
<text fill="Black" font-family="Arial" font-size="5" x="101" y="5.0030518">
0x10004000
</text>
</g>
<g fill="Crimson">
<rect height="0.0015257392" width="50" x="100" y="0.0015260186"/>
<text fill="Black" font-family="Arial" font-size="5" x="101" y="-1.9969482">
0x10004000
</text>
<text fill="Black" font-family="Arial" font-size="5" x="101" y="5.001526">
0x10005000
</text>
</g>
<g fill="Crimson">
<rect height="0.0015257392" width="50" x="100" y="0.00000013969839"/>
<text fill="Black" font-family="Arial" font-size="5" x="101" y="-1.9984741">
0x10005000
</text>
<text fill="Black" font-family="Arial" font-size="5" x="101" y="5">
0x10006000
</text>
</g>
<g fill="MediumSeaGreen">
<rect height="0.0000953587" width="50" x="150" y="0.009059914"/>
<text fill="Black" font-family="Arial" font-size="5" x="151" y="-1.9908447">
0x10000000
</text>
<text fill="Black" font-family="Arial" font-size="5" x="151" y="5.00906">
0x10000100
</text>
</g>
<g fill="MediumSeaGreen">
<rect height="0.006773448" width="50" x="150" y="0.0022902726"/>
<text fill="Black" font-family="Arial" font-size="5" x="151" y="-1.9909363">
0x10000100
</text>
<text fill="Black" font-family="Arial" font-size="5" x="151" y="5.0022902">
0x10004808
</text>
</g>
<g fill="MediumSeaGreen">
<rect height="0.0018878044" width="50" x="150" y="0.000401014"/>
<text fill="Black" font-family="Arial" font-size="5" x="151" y="-1.9977112">
0x10004810
</text>
<text fill="Black" font-family="Arial" font-size="5" x="151" y="5.000401">
0x10005BDC
</text>
</g>
<g fill="SandyBrown">
<rect height="0.0000029799594" width="50" x="150" y="0.0022858384"/>
<text fill="Black" font-family="Arial" font-size="5" x="151" y="-1.9977112">
0x10004808
</text>
<text fill="Black" font-family="Arial" font-size="5" x="151" y="5.002286">
0x10004810
</text>
</g>
<g fill="SandyBrown">
<rect height="0.00039484462" width="50" x="150" y="0.000001883891"/>
<text fill="Black" font-family="Arial" font-size="5" x="151" y="-1.9996033">
0x10005BDC
</text>
<text fill="Black" font-family="Arial" font-size="5" x="151" y="5.000002">
0x10006000
</text>
</g>
</g>
</svg>