<svg viewBox="0 -20 300 140" xmlns="http://www.w3.org/2000/svg">
<g transform="scale(1, 1)">
<g fill="CornflowerBlue">
<rect height="0.0015258323" width="50" x="50" y="0.0015259255"/>
<text fill="Black" font-family="Arial" font-size="5" x="51" y="-1.9969482">
0x10000000
</text>
<text fill="Black" font-family="Arial" font-size="5" x="51" y="5.001526">
0x10001000
</text>
</g>
<g fill="CornflowerBlue">
<rect height="0.0015258323" width="50" x="50" y="0.00000004656613"/>
<text fill="Black" font-family="Arial" font-size="5" x="51" y="-1.9984741">
0x10001000
</text>
<text fill="Black" font-family="Arial" font-size="5" x="51" y="5">
0x10002000
</text>
</g>
<g fill="Crimson">
<rect height="0.0015258323" width="50" x="100" y="0.0015259255"/>
<text fill="Black" font-family="Arial" font-size="5" x="101" y="-1.9969482">
0x10000000
</text>
<text fill="Black" font-family="Arial" font-size="5" x="101" y="5.001526">
0x10001000
</text>
</g>
<g fill="Crimson">
<rect height="0.0015258323" width="50" x="100" y="0.00000004656613"/>
<text fill="Black" font-family="Arial" font-size="5" x="101" y="-1.9984741">
0x10001000
</text>
<text fill="Black" font-family="Arial" font-size="5" x="101" y="5">
0x10002000
</text>
</g>
<g fill="MediumSeaGreen">
<rect height="0.0021799733" width="50" x="150" y="0.0007802318"/>
<text fill="Black" font-family="Arial" font-size="5" x="151" y="-1.9970398">
0x10000100
</text>
<text fill="Black" font-family="Arial" font-size="5" x="151" y="5.00078">
0x100017DC
</text>
</g>
<g fill="MediumSeaGreen">
<rect height="0.00054238574" width="50" x="150" y="0.0002358125"/>
<text fill="Black" font-family="Arial" font-size="5" x="151" y="-1.9992218">
0x100017E0
</text>
<text fill="Black" font-family="Arial" font-size="5" x="151" y="5.000236">
0x10001D90
</text>
</g>
<g fill="SandyBrown">
<rect height="0.00009536452" width="50" x="150" y="0.0029563932"/>
<text fill="Black" font-family="Arial" font-size="5" x="151" y="-1.9969482">
0x10000000
</text>
<text fill="Black" font-family="Arial" font-size="5" x="151" y="5.0029564">
0x10000100
</text>
</g>
<g fill="SandyBrown">
<rect height="0.0000014900706" width="50" x="150" y="0.0007767082"/>
<text fill="Black" font-family="Arial" font-size="5" x="151" y="-1.9992218">
0x100017DC
</text>
<text fill="Black" font-family="Arial" font-size="5" x="151" y="5.000777">
0x100017E0
</text>
</g>
<g fill="SandyBrown">
<rect height="0.00023245101" width="50" x="150" y="0.000004060217"/>
<text fill="Black" font-family="Arial" font-size="5" x="151" y="-1.9997635">
0x10001D90
</text>
<text fill="Black" font-family="Arial" font-size="5" x="151" y="5.0000043">
0x10002000
</text>
</g>
</g>
</svg>