<svg viewBox="0 -20 300 140" xmlns="http://www.w3.org/2000/svg">
<g transform="scale(1, 1)">
<g fill="CornflowerBlue">
<rect height="0.0015255996" width="50" x="50" y="0.016777318"/>
<text fill="Black" font-family="Arial" font-size="5" x="51" y="-1.9816971">
0x10000000
</text>
<text fill="Black" font-family="Arial" font-size="5" x="51" y="5.0167775">
0x10001000
</text>
</g>
<g fill="CornflowerBlue">
<rect height="0.0015255996" width="50" x="50" y="0.015251439"/>
<text fill="Black" font-family="Arial" font-size="5" x="51" y="-1.983223">
0x10001000
</text>
<text fill="Black" font-family="Arial" font-size="5" x="51" y="5.0152516">
0x10002000
</text>
</g>
<g fill="CornflowerBlue">
<rect height="0.0015255996" width="50" x="50" y="0.01373319"/>
<text fill="Black" font-family="Arial" font-size="5" x="51" y="-1.9847412">
0x10002000
</text>
<text fill="Black" font-family="Arial" font-size="5" x="51" y="5.0137334">
0x10003000
</text>
</g>
<g fill="CornflowerBlue">
<rect height="0.0015255996" width="50" x="50" y="0.012207311"/>
<text fill="Black" font-family="Arial" font-size="5" x="51" y="-1.9862671">
0x10003000
</text>
<text fill="Black" font-family="Arial" font-size="5" x="51" y="5.0122075">
0x10004000
</text>
</g>
<g fill="CornflowerBlue">
<rect height="0.0015255996" width="50" x="50" y="0.010681432"/>
<text fill="Black" font-family="Arial" font-size="5" x="51" y="-1.987793">
0x10004000
</text>
<text fill="Black" font-family="Arial" font-size="5" x="51" y="5.0106816">
0x10005000
</text>
</g>
<g fill="CornflowerBlue">
<rect height="0.0015255996" width="50" x="50" y="0.009155553"/>
<text fill="Black" font-family="Arial" font-size="5" x="51" y="-1.9893188">
0x10005000
</text>
<text fill="Black" font-family="Arial" font-size="5" x="51" y="5.0091558">
0x10006000
</text>
</g>
<g fill="CornflowerBlue">
<rect height="0.0015255996" width="50" x="50" y="0.007629674"/>
<text fill="Black" font-family="Arial" font-size="5" x="51" y="-1.9908447">
0x10006000
</text>
<text fill="Black" font-family="Arial" font-size="5" x="51" y="5.00763">
0x10007000
</text>
</g>
<g fill="CornflowerBlue">
<rect height="0.0015255996" width="50" x="50" y="0.006103795"/>
<text fill="Black" font-family="Arial" font-size="5" x="51" y="-1.9923706">
0x10007000
</text>
<text fill="Black" font-family="Arial" font-size="5" x="51" y="5.006104">
0x10008000
</text>
</g>
<g fill="CornflowerBlue">
<rect height="0.0015255996" width="50" x="50" y="0.004577916"/>
<text fill="Black" font-family="Arial" font-size="5" x="51" y="-1.9938965">
0x10008000
</text>
<text fill="Black" font-family="Arial" font-size="5" x="51" y="5.004578">
0x10009000
</text>
</g>
<g fill="CornflowerBlue">
<rect height="0.0015255996" width="50" x="50" y="0.0030520372"/>
<text fill="Black" font-family="Arial" font-size="5" x="51" y="-1.9954224">
0x10009000
</text>
<text fill="Black" font-family="Arial" font-size="5" x="51" y="5.003052">
0x1000A000
</text>
</g>
<g fill="CornflowerBlue">
<rect height="0.0015255996" width="50" x="50" y="0.0015261582"/>
<text fill="Black" font-family="Arial" font-size="5" x="51" y="-1.9969482">
0x1000A000
</text>
<text fill="Black" font-family="Arial" font-size="5" x="51" y="5.0015264">
0x1000B000
</text>
</g>
<g fill="CornflowerBlue">
<rect height="0.0015255996" width="50" x="50" y="0.00000027928036"/>
<text fill="Black" font-family="Arial" font-size="5" x="51" y="-1.9984741">
0x1000B000
</text>
<text fill="Black" font-family="Arial" font-size="5" x="51" y="5.0000005">
0x1000C000
</text>
</g>
<g fill="Crimson">
<rect height="0.0015255996" width="50" x="100" y="0.016777318"/>
<text fill="Black" font-family="Arial" font-size="5" x="101" y="-1.9816971">
0x10000000
</text>
<text fill="Black" font-family="Arial" font-size="5" x="101" y="5.0167775">
0x10001000
</text>
</g>
<g fill="Crimson">
<rect height="0.0015255996" width="50" x="100" y="0.015251439"/>
<text fill="Black" font-family="Arial" font-size="5" x="101" y="-1.983223">
0x10001000
</text>
<text fill="Black" font-family="Arial" font-size="5" x="101" y="5.0152516">
0x10002000
</text>
</g>
<g fill="Crimson">
<rect height="0.0015255996" width="50" x="100" y="0.01373319"/>
<text fill="Black" font-family="Arial" font-size="5" x="101" y="-1.9847412">
0x10002000
</text>
<text fill="Black" font-family="Arial" font-size="5" x="101" y="5.0137334">
0x10003000
</text>
</g>
<g fill="Crimson">
<rect height="0.0015255996" width="50" x="100" y="0.012207311"/>
<text fill="Black" font-family="Arial" font-size="5" x="101" y="-1.9862671">
0x10003000
</text>
<text fill="Black" font-family="Arial" font-size="5" x="101" y="5.0122075">
0x10004000
</text>
</g>
<g fill="Crimson">
<rect height="0.0015255996" width="50" x="100" y="0.010681432"/>
<text fill="Black" font-family="Arial" font-size="5" x="101" y="-1.987793">
0x10004000
</text>
<text fill="Black" font-family="Arial" font-size="5" x="101" y="5.0106816">
0x10005000
</text>
</g>
<g fill="Crimson">
<rect height="0.0015255996" width="50" x="100" y="0.009155553"/>
<text fill="Black" font-family="Arial" font-size="5" x="101" y="-1.9893188">
0x10005000
</text>
<text fill="Black" font-family="Arial" font-size="5" x="101" y="5.0091558">
0x10006000
</text>
</g>
<g fill="Crimson">
<rect height="0.0015255996" width="50" x="100" y="0.007629674"/>
<text fill="Black" font-family="Arial" font-size="5" x="101" y="-1.9908447">
0x10006000
</text>
<text fill="Black" font-family="Arial" font-size="5" x="101" y="5.00763">
0x10007000
</text>
</g>
<g fill="Crimson">
<rect height="0.0015255996" width="50" x="100" y="0.006103795"/>
<text fill="Black" font-family="Arial" font-size="5" x="101" y="-1.9923706">
0x10007000
</text>
<text fill="Black" font-family="Arial" font-size="5" x="101" y="5.006104">
0x10008000
</text>
</g>
<g fill="Crimson">
<rect height="0.0015255996" width="50" x="100" y="0.004577916"/>
<text fill="Black" font-family="Arial" font-size="5" x="101" y="-1.9938965">
0x10008000
</text>
<text fill="Black" font-family="Arial" font-size="5" x="101" y="5.004578">
0x10009000
</text>
</g>
<g fill="Crimson">
<rect height="0.0015255996" width="50" x="100" y="0.0030520372"/>
<text fill="Black" font-family="Arial" font-size="5" x="101" y="-1.9954224">
0x10009000
</text>
<text fill="Black" font-family="Arial" font-size="5" x="101" y="5.003052">
0x1000A000
</text>
</g>
<g fill="Crimson">
<rect height="0.0015255996" width="50" x="100" y="0.0015261582"/>
<text fill="Black" font-family="Arial" font-size="5" x="101" y="-1.9969482">
0x1000A000
</text>
<text fill="Black" font-family="Arial" font-size="5" x="101" y="5.0015264">
0x1000B000
</text>
</g>
<g fill="Crimson">
<rect height="0.0015255996" width="50" x="100" y="0.00000027928036"/>
<text fill="Black" font-family="Arial" font-size="5" x="101" y="-1.9984741">
0x1000B000
</text>
<text fill="Black" font-family="Arial" font-size="5" x="101" y="5.0000005">
0x1000C000
</text>
</g>
<g fill="MediumSeaGreen">
<rect height="0.00009534998" width="50" x="150" y="0.018207567"/>
<text fill="Black" font-family="Arial" font-size="5" x="151" y="-1.9816971">
0x10000000
</text>
<text fill="Black" font-family="Arial" font-size="5" x="151" y="5.0182076">
0x10000100
</text>
</g>
<g fill="MediumSeaGreen">
<rect height="0.017528007" width="50" x="150" y="0.00068335794"/>
<text fill="Black" font-family="Arial" font-size="5" x="151" y="-1.9817886">
0x10000100
</text>
<text fill="Black" font-family="Arial" font-size="5" x="151" y="5.0006833">
0x1000B8D4
</text>
</g>
<g fill="MediumSeaGreen">
<rect height="0.00010428903" width="50" x="150" y="0.0005747271"/>
<text fill="Black" font-family="Arial" font-size="5" x="151" y="-1.999321">
0x1000B8D8
</text>
<text fill="Black" font-family="Arial" font-size="5" x="151" y="5.0005746">
0x1000B9F0
</text>
</g>
<g fill="SandyBrown">
<rect height="0.0000014898434" width="50" x="150" y="0.0006775263"/>
<text fill="Black" font-family="Arial" font-size="5" x="151" y="-1.999321">
0x1000B8D4
</text>
<text fill="Black" font-family="Arial" font-size="5" x="151" y="5.0006776">
0x1000B8D8
</text>
</g>
<g fill="SandyBrown">
<rect height="0.0005780592" width="50" x="150" y="-0.0000058545847"/>
<text fill="Black" font-family="Arial" font-size="5" x="151" y="-1.9994278">
0x1000B9F0
</text>
<text fill="Black" font-family="Arial" font-size="5" x="151" y="4.9999943">
0x1000C000
</text>
</g>
</g>
</svg>