<svg viewBox="0 -20 300 140" xmlns="http://www.w3.org/2000/svg">
<g transform="scale(1, 1)">
<g fill="CornflowerBlue">
<rect height="0.0015257392" width="50" x="50" y="0.007629534"/>
<text fill="Black" font-family="Arial" font-size="5" x="51" y="-1.9908447">
0x10000000
</text>
<text fill="Black" font-family="Arial" font-size="5" x="51" y="5.0076294">
0x10001000
</text>
</g>
<g fill="CornflowerBlue">
<rect height="0.0015257392" width="50" x="50" y="0.0061036553"/>
<text fill="Black" font-family="Arial" font-size="5" x="51" y="-1.9923706">
0x10001000
</text>
<text fill="Black" font-family="Arial" font-size="5" x="51" y="5.0061035">
0x10002000
</text>
</g>
<g fill="CornflowerBlue">
<rect height="0.0015257392" width="50" x="50" y="0.0045777764"/>
<text fill="Black" font-family="Arial" font-size="5" x="51" y="-1.9938965">
0x10002000
</text>
<text fill="Black" font-family="Arial" font-size="5" x="51" y="5.0045776">
0x10003000
</text>
</g>
<g fill="CornflowerBlue">
<rect height="0.0015257392" width="50" x="50" y="0.0030518975"/>
<text fill="Black" font-family="Arial" font-size="5" x="51" y="-1.9954224">
0x10003000
</text>
<text fill="Black" font-family="Arial" font-size="5" x="51" y="5.0030518">
0x10004000
</text>
</g>
<g fill="CornflowerBlue">
<rect height="0.0015257392" width="50" x="50" y="0.0015260186"/>
<text fill="Black" font-family="Arial" font-size="5" x="51" y="-1.9969482">
0x10004000
</text>
<text fill="Black" font-family="Arial" font-size="5" x="51" y="5.001526">
0x10005000
</text>
</g>
<g fill="CornflowerBlue">
<rect height="0.0015257392" width="50" x="50" y="0.00000013969839"/>
<text fill="Black" font-family="Arial" font-size="5" x="51" y="-1.9984741">
0x10005000
</text>
<text fill="Black" font-family="Arial" font-size="5" x="51" y="5">
0x10006000
</text>
</g>
<g fill="Crimson">
<rect height="0.0015257392" width="50" x="100" y="0.007629534"/>
<text fill="Black" font-family="Arial" font-size="5" x="101" y="-1.9908447">
0x10000000
</text>
<text fill="Black" font-family="Arial" font-size="5" x="101" y="5.0076294">
0x10001000
</text>
</g>
<g fill="Crimson">
<rect height="0.0015257392" width="50" x="100" y="0.0061036553"/>
<text fill="Black" font-family="Arial" font-size="5" x="101" y="-1.9923706">
0x10001000
</text>
<text fill="Black" font-family="Arial" font-size="5" x="101" y="5.0061035">
0x10002000
</text>
</g>
<g fill="Crimson">
<rect height="0.0015257392" width="50" x="100" y="0.0045777764"/>
<text fill="Black" font-family="Arial" font-size="5" x="101" y="-1.9938965">
0x10002000
</text>
<text fill="Black" font-family="Arial" font-size="5" x="101" y="5.0045776">
0x10003000
</text>
</g>
<g fill="Crimson">
<rect height="0.0015257392" width="50" x="100" y="0.0030518975"/>
<text fill="Black" font-family="Arial" font-size="5" x="101" y="-1.9954224">
0x10003000
</text>
<text fill="Black" font-family="Arial" font-size="5" x="101" y="5.0030518">
0x10004000
</text>
</g>
<g fill="Crimson">
<rect height="0.0015257392" width="50" x="100" y="0.0015260186"/>
<text fill="Black" font-family="Arial" font-size="5" x="101" y="-1.9969482">
0x10004000
</text>
<text fill="Black" font-family="Arial" font-size="5" x="101" y="5.001526">
0x10005000
</text>
</g>
<g fill="Crimson">
<rect height="0.0015257392" width="50" x="100" y="0.00000013969839"/>
<text fill="Black" font-family="Arial" font-size="5" x="101" y="-1.9984741">
0x10005000
</text>
<text fill="Black" font-family="Arial" font-size="5" x="101" y="5">
0x10006000
</text>
</g>
<g fill="MediumSeaGreen">
<rect height="0.0000953587" width="50" x="150" y="0.009059914"/>
<text fill="Black" font-family="Arial" font-size="5" x="151" y="-1.9908447">
0x10000000
</text>
<text fill="Black" font-family="Arial" font-size="5" x="151" y="5.00906">
0x10000100
</text>
</g>
<g fill="MediumSeaGreen">
<rect height="0.007135513" width="50" x="150" y="0.0019282079"/>
<text fill="Black" font-family="Arial" font-size="5" x="151" y="-1.9909363">
0x10000100
</text>
<text fill="Black" font-family="Arial" font-size="5" x="151" y="5.0019283">
0x10004BD4
</text>
</g>
<g fill="MediumSeaGreen">
<rect height="0.001910154" width="50" x="150" y="0.000012453413"/>
<text fill="Black" font-family="Arial" font-size="5" x="151" y="-1.9980774">
0x10004BE0
</text>
<text fill="Black" font-family="Arial" font-size="5" x="151" y="5.0000124">
0x10005FE8
</text>
</g>
<g fill="SandyBrown">
<rect height="0.000004469939" width="50" x="150" y="0.0019181375"/>
<text fill="Black" font-family="Arial" font-size="5" x="151" y="-1.9980774">
0x10004BD4
</text>
<text fill="Black" font-family="Arial" font-size="5" x="151" y="5.0019183">
0x10004BE0
</text>
</g>
<g fill="SandyBrown">
<rect height="0.000008939878" width="50" x="150" y="0.000006318911"/>
<text fill="Black" font-family="Arial" font-size="5" x="151" y="-1.9999847">
0x10005FE8
</text>
<text fill="Black" font-family="Arial" font-size="5" x="151" y="5.000006">
0x10006000
</text>
</g>
</g>
</svg>